<svg width="72" height="72" viewBox="0 0 72 72" fill="none" xmlns="http://www.w3.org/2000/svg">
<path d="M63.2734 44.0684C65.1472 44.2324 66.4157 46.0679 65.7027 47.8085C60.532 60.4328 47.6054 68.797 33.3003 67.5454C30.3154 67.2843 27.463 66.6197 24.7905 65.6122C23.6008 65.1637 22.906 63.9516 23.0168 62.6851L24.6775 43.7032C24.8219 42.0526 26.277 40.8317 27.9275 40.9761L63.2734 44.0684ZM15.7374 54.0993C15.5243 56.5349 12.6954 57.6336 11.1621 55.7293C6.16254 49.5203 3.46136 41.4468 4.21102 32.8782C4.96069 24.3094 9.02273 16.827 15.0247 11.5802C16.8654 9.97114 19.4604 11.5444 19.2474 13.98L15.7374 54.0993ZM63.3723 21.9931C64.4391 22.0864 65.3857 22.7372 65.7858 23.7305C66.9926 26.7265 67.7555 29.9356 68.0014 33.2696C68.1287 34.9944 66.6219 36.3308 64.899 36.1801L28.6248 33.0065C26.9742 32.8621 25.7532 31.407 25.8977 29.7565L26.5949 21.7869C26.7393 20.1364 28.1944 18.9154 29.8449 19.0598L63.3723 21.9931ZM38.8782 3.78898C44.1298 4.24843 48.9727 5.95267 53.1434 8.58484C55.4807 10.06 54.1124 13.1524 51.359 12.9115L30.5422 11.0902C28.8916 10.9458 27.6707 9.49073 27.8151 7.84018L27.9071 6.78883C28.0179 5.52228 28.9127 4.44924 30.1621 4.21427C32.969 3.68643 35.8935 3.52785 38.8782 3.78898Z" fill="white"/>
</svg>
